<svg xmlns="http://www.w3.org/2000/svg" viewBox="0 0 100 100" width="512" height="512">
  <circle cx="50" cy="50" r="50" fill="#7c5cbf"/>
  <circle cx="33" cy="36" r="12" fill="#8de0a9"/>
  <circle cx="67" cy="36" r="12" fill="#8de0a9"/>
  <ellipse cx="50" cy="65" rx="30" ry="26" fill="#7ce89a"/>
  <ellipse cx="50" cy="72" rx="17" ry="14" fill="#d4f5de"/>
  <circle cx="33" cy="36" r="8.5" fill="white"/>
  <circle cx="67" cy="36" r="8.5" fill="white"/>
  <circle cx="34" cy="37" r="5" fill="#1a1a2e"/>
  <circle cx="68" cy="37" r="5" fill="#1a1a2e"/>
  <circle cx="36" cy="35" r="1.8" fill="white"/>
  <circle cx="70" cy="35" r="1.8" fill="white"/>
  <path d="M42 58 Q50 65 58 58" stroke="#3d9e5a" stroke-width="2.5" fill="none" stroke-linecap="round"/>
  <ellipse cx="18" cy="58" rx="7" ry="9" fill="#7ce89a" transform="rotate(-40,18,58)"/>
  <line x1="8" y1="44" x2="5" y2="34" stroke="#7ce89a" stroke-width="3" stroke-linecap="round"/>
  <line x1="12" y1="42" x2="11" y2="32" stroke="#7ce89a" stroke-width="3" stroke-linecap="round"/>
  <ellipse cx="82" cy="58" rx="7" ry="9" fill="#7ce89a" transform="rotate(40,82,58)"/>
  <line x1="92" y1="44" x2="95" y2="34" stroke="#7ce89a" stroke-width="3" stroke-linecap="round"/>
  <line x1="88" y1="42" x2="89" y2="32" stroke="#7ce89a" stroke-width="3" stroke-linecap="round"/>
  <ellipse cx="36" cy="92" rx="12" ry="5" fill="#8de0a9"/>
  <ellipse cx="64" cy="92" rx="12" ry="5" fill="#8de0a9"/>
  <polygon points="50,8 43,20 32,14 36,26 64,26 68,14 57,20" fill="#f5c842" stroke="#e0a020" stroke-width="1"/>
  <circle cx="50" cy="11" r="2.5" fill="#e05c7c"/>
</svg>